# xmcd CD database file
#
# Track frame offsets:
#	150
#	1726
#	21075
#	35359
#	49493
#	70450
#	87321
#	102660
#	120911
#	138003
#	154930
#	171570
#
# Disc length: 2516 seconds
#
# Revision: 3
# Processed by: cddbd v1.5.2PL0 Copyright (c) Steve Scherf et al.
# Submitted via: CDex 1.70beta2
#
DISCID=9c09d20c
DTITLE=Kenichiro Nishihara - Humming Jazz - Life -SELECTED-
DYEAR=2011
DGENRE=Jazz
TTITLE0=Prelude
TTITLE1=Consider My Love feat.Pismo
TTITLE2=Power of Self feat.Substantial
TTITLE3=From Time To Time feat.Gregg Green
TTITLE4=Beautiful Things feat.Amanda Diva
TTITLE5=Heart feat.Substantial
TTITLE6=Livin'The Life -remix- feat.Steph Pockets
TTITLE7=Now I Know feat.Pismo
TTITLE8=Waltz For Jazz Things feat.Gregg Green
TTITLE9=Life is Like A Sumba feat.monicaVasconcelos
TTITLE10=Moon Child feat.nina Vidal
TTITLE11=Life feat.Kissey Asplund
EXTD=YEAR: 2011
EXTT0=
EXTT1=
EXTT2=
EXTT3=
EXTT4=
EXTT5=
EXTT6=
EXTT7=
EXTT8=
EXTT9=
EXTT10=
EXTT11=
PLAYORDER=
